Coordinates
version=1
nRows=6
nColumns=38
inDegrees=yes

Units are S.I. units (second, meters, Newtons, ...)
Angles are in degrees.

endheader
time	pelvis_tilt	pelvis_list	pelvis_rotation	pelvis_tx	pelvis_ty	pelvis_tz	hip_flexion_r	hip_adduction_r	hip_rotation_r	knee_angle_r	ankle_angle_r	subtalar_angle_r	mtp_angle_r	hip_flexion_l	hip_adduction_l	hip_rotation_l	knee_angle_l	ankle_angle_l	subtalar_angle_l	mtp_angle_l	lumbar_extension	lumbar_bending	lumbar_rotation	arm_flex_r	arm_add_r	arm_rot_r	elbow_flex_r	pro_sup_r	wrist_flex_r	wrist_dev_r	arm_flex_l	arm_add_l	arm_rot_l	elbow_flex_l	pro_sup_l	wrist_flex_l	wrist_dev_l
      1.47000000	     -1.55255116	     -0.73591586	      7.16522397	      0.28010328	      0.88087852	     -0.20295239	     25.93585797	      4.60475525	      1.07087206	    -23.86004883	      0.57596766	     -8.11303714	      0.00000000	     -0.57598944	     -0.24571687	      4.21149551	    -45.00547818	     -1.29276283	     10.13382315	      0.00000000	     -7.50457636	      1.39150218	     -1.94610260	     -1.41937309	     -5.53291506	     38.37349861	     28.33269193	     44.22481112	      0.00000000	      0.00000000	      5.37028790	     -7.83307045	     20.77691956	     50.08891416	     44.22481112	      0.00000000	      0.00000000
      1.48000000	     -1.46846841	     -0.88555123	      7.17009096	      0.29206522	      0.88205998	     -0.20199533	     25.15361377	      5.04892066	      1.46781982	    -24.17021023	      1.54432178	     -8.42377760	      0.00000000	      0.97114594	     -0.41778523	      4.49997413	    -48.28979701	     -1.31290949	     10.83979428	      0.00000000	     -7.62289849	      1.63643534	     -1.60212146	     -1.29021783	     -5.52387676	     38.33926700	     28.25333475	     44.22929976	      0.00000000	      0.00000000	      5.48183645	     -7.70947845	     20.80070608	     50.08531070	     44.22929976	      0.00000000	      0.00000000
      1.49000000	     -1.34762232	     -0.99398693	      7.10964454	      0.30393242	      0.88326665	     -0.20107516	     24.26179673	      5.44713903	      1.75552201	    -24.33972615	      2.42309152	     -8.65958058	      0.00000000	      2.46595869	     -0.52365437	      4.47495857	    -51.38292945	     -0.60450510	     10.61331170	      0.00000000	     -7.79971159	      1.86586315	     -1.21750104	     -1.16743884	     -5.51112001	     38.32028379	     28.21521268	     44.23229104	      0.00000000	      0.00000000	      5.50194389	     -7.62538273	     20.83039682	     50.08116360	     44.23229104	      0.00000000	      0.00000000
      1.50000000	     -1.32695662	     -1.33678354	      7.12190228	      0.31552163	      0.88425226	     -0.20016263	     23.42069372	      6.04211088	      1.99484537	    -24.29565238	      3.03287868	     -8.94572966	      0.00000000	      4.29858465	     -1.08573155	      4.06622450	    -54.35453838	     -0.05035751	      9.97225840	      0.00000000	     -7.83626521	      2.29707604	     -0.75475030	     -1.06027176	     -5.57945195	     38.29216547	     28.09628105	     44.24034017	      0.00000000	      0.00000000	      5.52758776	     -7.43028455	     20.91610289	     50.08428812	     44.24034017	      0.00000000	      0.00000000
      1.51000000	     -1.19788901	     -1.46266762	      7.17729735	      0.32699000	      0.88550029	     -0.19943295	     22.45522302	      6.40287942	      2.16065692	    -24.28838437	      3.92693424	     -9.18932636	      0.00000000	      5.97214443	     -1.50972243	      3.48486211	    -56.95516615	      0.35816168	      8.86910195	      0.00000000	     -8.04812354	      2.47048716	     -0.41299629	     -0.83634811	     -5.56748264	     38.28557972	     28.10454322	     44.24428187	      0.00000000	      0.00000000	      5.59825645	     -7.32491224	     20.95389416	     50.10140213	     44.24428187	      0.00000000	      0.00000000
      1.52000000	     -1.16581260	     -1.49834488	      7.18293665	      0.33845001	      0.88688790	     -0.19884216	     21.54290055	      6.64888245	      2.39610421	    -24.19297777	      4.51637432	     -9.49073996	      0.00000000	      7.74370898	     -1.66883302	      3.02752613	    -59.22798950	      0.77985147	      7.08515736	      0.00000000	     -8.12944032	      2.53298213	      0.00257281	     -0.66680101	     -5.62816229	     38.31080119	     28.07813278	     44.25348793	      0.00000000	      0.00000000	      5.56817206	     -7.15396834	     21.03679808	     50.05934075	     44.25348793	      0.00000000	      0.00000000
